<svg xmlns="http://www.w3.org/2000/svg" viewBox="0 0 24 24" width="100%" height="100%"><path d="M12 3c2.53 0 4.5 2.07 4.5 4.73C16.5 10.98 12 16 12 16s-4.5-5.02-4.5-8.27C7.5 5.07 9.47 3 12 3m0 1c-1.75 0-3.5 1.39-3.5 3.76 0 2.24 2.37 5.38 3.5 6.74 1.13-1.36 3.5-4.5 3.5-6.74A3.6 3.6 0 0 0 12 4m0 2a1.5 1.5 0 1 1 0 3 1.5 1.5 0 0 1 0-3m10.04 12.47-3.75-6a1 1 0 0 0-.84-.47H16.1q-.29.51-.6 1h1.95l3.75 6H2.8l3.75-6H8.5q-.32-.49-.6-1H6.55a1 1 0 0 0-.84.47l-3.75 6A1 1 0 0 0 2.8 20h18.4a1 1 0 0 0 .84-1.53"/></svg>