<svg xmlns="http://www.w3.org/2000/svg" viewBox="0 0 24 24" width="100%" height="100%"><path d="m17.02 15.65-1.07 1.06c-.5.51-1.28.6-1.88.23a23 23 0 0 1-7.1-7.1 1.5 1.5 0 0 1 .22-1.89l1.1-1.1-2.74-3.36c-.38.44-1.6 2.39-1.9 3.4-.21.58-.18 1.2.07 1.76a22 22 0 0 0 11.62 11.62c.54.26 1.17.3 1.75.1q1.6-.6 2.99-1.6l.4-.32m-5.55 2.74A23 23 0 0 1 2.8 9.06a3.3 3.3 0 0 1-.1-2.48q.5-1.68 1.73-3.26.12-.2.37-.48a1 1 0 0 1 1.53.02l2.76 3.37c.32.43.29.96-.08 1.32L7.9 8.66a.5.5 0 0 0-.08.64 22 22 0 0 0 6.78 6.78c.21.13.46.1.64-.08l1.16-1.15c.18-.14.68-.4 1.34.03l3.4 2.8c.47.44.49 1.15 0 1.54-.19.13-.3.26-.49.37-1.23.84-2.74 1.82-4.33 1.91q-.73 0-1.39-.3"/></svg>